<svg xmlns="http://www.w3.org/2000/svg" xmlns:xlink="http://www.w3.org/1999/xlink" width="773" height="689" viewBox="0 0 773 689">
  <defs>
    <polygon id="paypal-checkout-overview-a" points="78.89 20.14 78.89 .17 .01 .17 .01 20.14"/>
    <polygon id="paypal-checkout-overview-c" points="78.89 20.14 78.89 .17 .01 .17 .01 20.14"/>
    <polygon id="paypal-checkout-overview-e" points="86.77 22.35 86.77 .19 .01 .19 .01 22.35"/>
  </defs>
  <g fill="none" fill-rule="evenodd">
    <path fill="#9DA3A6" fill-rule="nonzero" d="M0,3.2661 C0,1.469745 1.25098714,0 2.77997143,0 L483.715029,0 C485.244013,0 486.495,1.469745 486.495,3.2661 L486.495,326.61 L0,326.61 L0,3.2661 Z"/>
    <path fill="#FFF" stroke="#0070BA" stroke-width="2" d="M377.62526,495 C376.175369,495 375,496.175369 375,497.62526 L375,685.882074 C375,687.018635 375.921365,687.94 377.057926,687.94 L511.162074,687.94 C512.298635,687.94 513.22,687.018635 513.22,685.882074 L513.22,497.62526 C513.22,496.175369 512.044631,495 510.59474,495 L377.62526,495 Z"/>
    <g transform="translate(398 642)">
      <rect width="93.195" height="29.356" y=".28" fill="#0070BA" rx="14.678"/>
      <text fill="#FFF" font-family="PayPalSansSmall-Medium, PayPal Sans Small, sans-serif" font-size="12.721" font-weight="400">
        <tspan x="28.71" y="16.67">Log In</tspan>
      </text>
    </g>
    <g transform="translate(404.103 513.594)">
      <path fill="#009CDE" d="M76.1963712 4.86207769L74.4772896 16.7218991C74.4439697 16.9517628 74.6077456 17.159375 74.8221601 17.159375L76.5512188 17.159375C76.8375441 17.159375 77.0813254 16.93339 77.1259402 16.6267691L78.8209259 4.9798675C78.8544341 4.75000384 78.6906583 4.5421875 78.4760555 4.5421875L76.5412416 4.5421875C76.3693711 4.5421875 76.2231024 4.67794179 76.1963712 4.86207769M70.7423608 12.8957373C70.5423279 14.10439 69.6030093 14.9157835 68.404756 14.9157835 67.8038798 14.9157835 67.32314 14.7184444 67.0138569 14.3448103 66.7074897 13.9743526 66.5922132 13.446659 66.6894109 12.8590091 66.8758361 11.6612756 67.8303176 10.823676 69.0104921 10.823676 69.5985382 10.823676 70.0761677 11.0230005 70.3912827 11.4000096 70.708536 11.7797982 70.8331435 12.3110654 70.7423608 12.8957373L70.7423608 12.8957373zM73.6287438 8.77881344L71.5576551 8.77881344C71.3801721 8.77881344 71.2291269 8.91043906 71.2015228 9.08971196L71.1103513 9.68113387 70.9657211 9.46672109C70.5170565 8.80184296 69.5174753 8.5796875 68.5192549 8.5796875 66.231221 8.5796875 64.2763807 10.3505782 63.8959489 12.8343914 63.6980544 14.0734193 63.9791502 15.2574543 64.6669211 16.0839361 65.299095 16.8433147 66.2008953 17.159375 67.2755131 17.159375 69.1199367 17.159375 70.1428454 15.9493325 70.1428454 15.9493325L70.0505075 16.5371809C70.0157108 16.7607261 70.1848348 16.9630285 70.4066399 16.9630285L72.2716695 16.9630285C72.5673449 16.9630285 72.8190869 16.7434539 72.8653531 16.4450628L73.9848762 9.20426397C74.0194786 8.9807188 73.8503546 8.77881344 73.6287438 8.77881344L73.6287438 8.77881344zM61.4629963 8.79588999C61.2223541 10.4263705 60.0151851 10.4263705 58.8475953 10.4263705L58.1832565 10.4263705 58.6493029 7.38220809C58.6774043 7.19827634 58.8311699 7.06272619 59.0118495 7.06272619L59.3164123 7.06272619C60.110967 7.06272619 60.8617866 7.06272619 61.2488723 7.5298026 61.4804112 7.80927271 61.5504666 8.22347641 61.4629963 8.79588999L61.4629963 8.79588999zM60.954798 4.5421875L56.5514014 4.5421875C56.2504008 4.5421875 55.9941247 4.76817246 55.9472232 5.07499757L54.1667478 16.7218991C54.1315222 16.9515587 54.3036922 17.159375 54.5292943 17.159375L56.7884815 17.159375C56.9992414 17.159375 57.1787336 17.0011651 57.2113865 16.7864079L57.7164185 13.4846186C57.76332 13.1777935 58.0195961 12.9518086 58.3205967 12.9518086L59.7139865 12.9518086C62.6143586 12.9518086 64.2881677 11.5038308 64.725717 8.63420969 64.9226241 7.37914596 64.7336329 6.39293697 64.1638887 5.70252944 63.5377439 4.94353026 62.42794 4.5421875 60.954798 4.5421875L60.954798 4.5421875z"/>
      <path fill="#003087" d="M53.7957359 8.5796875L51.6840783 8.5796875C51.4821605 8.5796875 51.293257 8.68105674 51.1798754 8.850072L48.2670538 13.191589 47.0324765 9.01968589C46.9553771 8.75868004 46.717966 8.5796875 46.4486108 8.5796875L44.3728409 8.5796875C44.1222184 8.5796875 43.9457375 8.8291197 44.0265835 9.06917324L46.3517928 15.975851 44.1648104 19.0987421C43.993062 19.3437843 44.1663879 19.6828125 44.4631518 19.6828125L46.5728376 19.6828125C46.7727835 19.6828125 46.9599123 19.5836383 47.0738855 19.4172171L54.0964435 9.16076474C54.2644454 8.91532346 54.0909224 8.5796875 53.7957359 8.5796875M39.7925852 12.8957373C39.5925542 14.10439 38.6530501 14.9157835 37.4548082 14.9157835 36.8541322 14.9157835 36.3732025 14.7184444 36.0641167 14.3448103 35.7577525 13.9743526 35.6424771 13.446659 35.7394795 12.8590091 35.9260973 11.6612756 36.8805697 10.823676 38.0605386 10.823676 38.6487735 10.823676 39.126204 11.0230005 39.4415104 11.4000096 39.7587607 11.7797982 39.8833669 12.3110654 39.7925852 12.8957373L39.7925852 12.8957373zM42.6789407 8.77881344L40.6078717 8.77881344C40.4303904 8.77881344 40.2793466 8.91043906 40.2517427 9.08971196L40.1605722 9.68113387 40.015749 9.46672109C39.567283 8.80184296 38.5677114 8.5796875 37.5695004 8.5796875 35.2812939 8.5796875 33.3266667 10.3505782 32.9462385 12.8343914 32.7481515 14.0734193 33.0292445 15.2574543 33.7172033 16.0839361 34.3491768 16.8433147 35.2511629 17.159375 36.3257705 17.159375 38.1701765 17.159375 39.1930754 15.9493325 39.1930754 15.9493325L39.1005441 16.5371809C39.065942 16.7607261 39.2350644 16.9630285 39.4566731 16.9630285L41.3218793 16.9630285C41.6175519 16.9630285 41.8692915 16.7434539 41.9153628 16.4450628L43.0350697 9.20426397C43.0696717 8.9807188 42.9005493 8.77881344 42.6789407 8.77881344L42.6789407 8.77881344zM30.5130391 8.79588999C30.2724002 10.4263705 29.0652483 10.4263705 27.8978729 10.4263705L27.2335435 10.4263705 27.6993855 7.38220809C27.7276843 7.19827634 27.8814477 7.06272619 28.0619269 7.06272619L28.3664854 7.06272619C29.1612267 7.06272619 29.9120357 7.06272619 30.298918 7.5298026 30.5306516 7.80927271 30.600706 8.22347641 30.5130391 8.79588999L30.5130391 8.79588999zM30.0050458 4.5421875L25.6017115 4.5421875C25.3007151 4.5421875 25.0444427 4.76817246 24.9975419 5.07499757L23.2168937 16.7218991C23.1818665 16.9515587 23.3540341 17.159375 23.5794351 17.159375L25.6818585 17.159375C25.9828549 17.159375 26.2393252 16.93339 26.2862261 16.6267691L26.7667121 13.4846186C26.8134151 13.1777935 27.0698854 12.9518086 27.3708818 12.9518086L28.7642518 12.9518086C31.664385 12.9518086 33.3383684 11.5038308 33.7759115 8.63420969 33.9728158 7.37914596 33.7838273 6.39293697 33.2140911 5.70252944 32.5877573 4.94353026 31.4779691 4.5421875 30.0050458 4.5421875L30.0050458 4.5421875z"/>
      <mask id="paypal-checkout-overview-b" fill="#fff">
        <use xlink:href="#paypal-checkout-overview-a"/>
      </mask>
      <path fill="#009CDE" d="M14.6176629,5.24184998 C14.8512149,3.68805366 14.6161033,2.6306909 13.8107584,1.67302175 C12.9241187,0.618710829 11.3223967,0.167037682 9.27306588,0.167037682 L3.32411904,0.167037682 C2.90536309,0.167037682 2.54879669,0.485039992 2.48348792,0.916774414 L0.00643340147,17.3098647 C-0.04249944,17.6333603 0.197096027,17.9257271 0.510773086,17.9257271 L4.18327057,17.9257271 L3.92983354,19.6032249 C3.88713915,19.8862328 4.09651712,20.1421809 4.37100892,20.1421809 L7.46644978,20.1421809 C7.83295871,20.1421809 8.14488121,19.8638526 8.20200201,19.4862375 L8.23241446,19.3220482 L8.81551457,15.4628878 L8.85314022,15.2496655 C8.91026103,14.871847 9.22218353,14.5937221 9.58849751,14.5937221 L10.0515075,14.5937221 C13.0504473,14.5937221 15.3986388,13.3221198 16.0846734,9.64484934 C16.3714471,8.10834681 16.2232839,6.82575784 15.4651173,5.9240392 C15.2356593,5.65140766 14.9504452,5.42577454 14.6176629,5.24184998" mask="url(#paypal-checkout-overview-b)"/>
      <path fill="#012169" d="M14.6176629,5.24184998 C14.8512149,3.68805366 14.6161033,2.6306909 13.8107584,1.67302175 C12.9241187,0.618710829 11.3223967,0.167037682 9.27306588,0.167037682 L3.32411904,0.167037682 C2.90536309,0.167037682 2.54879669,0.485039992 2.48348792,0.916774414 L0.00643340147,17.3098647 C-0.04249944,17.6333603 0.197096027,17.9257271 0.510773086,17.9257271 L4.18327057,17.9257271 L5.10578135,11.8208152 L5.07712347,12.0122677 C5.14243224,11.5805333 5.49607437,11.2623275 5.91483032,11.2623275 L7.66042658,11.2623275 C11.0884548,11.2623275 13.7725479,9.80883517 14.556838,5.60542652 C14.5800372,5.48111467 14.5999223,5.36046504 14.6176629,5.24184998" mask="url(#paypal-checkout-overview-b)"/>
      <path fill="#003087" d="M6.09672012,5.26260253 C6.13610034,5.00278874 6.29576567,4.79017683 6.51079724,4.68254841 C6.60866292,4.63371888 6.71783579,4.60645573 6.83227236,4.60645573 L11.4953187,4.60645573 C12.0478114,4.60645573 12.5628735,4.64429861 13.0336815,4.72344314 C13.168393,4.7460268 13.2992055,4.77206922 13.4265089,4.80157039 C13.5536173,4.83086811 13.6772166,4.86382804 13.7967219,4.90045019 C13.856572,4.9185578 13.9152524,4.9376827 13.973153,4.95782488 C14.2043656,5.03778324 14.4195921,5.13239045 14.6176629,5.24184998 C14.8512149,3.68805366 14.6161033,2.6306909 13.8107584,1.67302175 C12.9241187,0.618710829 11.3223967,0.167037682 9.27306588,0.167037682 L3.32411904,0.167037682 C2.90536309,0.167037682 2.54879669,0.485039992 2.48348792,0.916774414 L0.00643340147,17.3098647 C-0.04249944,17.6333603 0.197096027,17.9257271 0.510773086,17.9257271 L4.18327057,17.9257271 L6.09672012,5.26260253" mask="url(#paypal-checkout-overview-b)"/>
    </g>
    <rect width="100.6" height="27.07" x="394" y="554" stroke="#0070BA" stroke-width="2" rx="2.446"/>
    <rect width="100.6" height="27.07" x="394" y="588" stroke="#0070BA" stroke-width="2" rx="2.446"/>
    <path fill="#FFF" stroke="#0070BA" stroke-width="2" d="M536.62526,495 C535.175369,495 534,496.175369 534,497.62526 L534,685.882074 C534,687.018635 534.921365,687.94 536.057926,687.94 L670.162074,687.94 C671.298635,687.94 672.22,687.018635 672.22,685.882074 L672.22,497.62526 C672.22,496.175369 671.044631,495 669.59474,495 L536.62526,495 Z"/>
    <g transform="translate(557 642)">
      <rect width="93.195" height="29.356" y=".28" fill="#0070BA" rx="14.678"/>
      <text fill="#FFF" font-family="PayPalSansSmall-Medium, PayPal Sans Small, sans-serif" font-size="12.721" font-weight="400">
        <tspan x="21.36" y="16.67">Pay Now</tspan>
      </text>
    </g>
    <g transform="translate(563.103 513.594)">
      <path fill="#009CDE" d="M76.1963712 4.86207769L74.4772896 16.7218991C74.4439697 16.9517628 74.6077456 17.159375 74.8221601 17.159375L76.5512188 17.159375C76.8375441 17.159375 77.0813254 16.93339 77.1259402 16.6267691L78.8209259 4.9798675C78.8544341 4.75000384 78.6906583 4.5421875 78.4760555 4.5421875L76.5412416 4.5421875C76.3693711 4.5421875 76.2231024 4.67794179 76.1963712 4.86207769M70.7423608 12.8957373C70.5423279 14.10439 69.6030093 14.9157835 68.404756 14.9157835 67.8038798 14.9157835 67.32314 14.7184444 67.0138569 14.3448103 66.7074897 13.9743526 66.5922132 13.446659 66.6894109 12.8590091 66.8758361 11.6612756 67.8303176 10.823676 69.0104921 10.823676 69.5985382 10.823676 70.0761677 11.0230005 70.3912827 11.4000096 70.708536 11.7797982 70.8331435 12.3110654 70.7423608 12.8957373L70.7423608 12.8957373zM73.6287438 8.77881344L71.5576551 8.77881344C71.3801721 8.77881344 71.2291269 8.91043906 71.2015228 9.08971196L71.1103513 9.68113387 70.9657211 9.46672109C70.5170565 8.80184296 69.5174753 8.5796875 68.5192549 8.5796875 66.231221 8.5796875 64.2763807 10.3505782 63.8959489 12.8343914 63.6980544 14.0734193 63.9791502 15.2574543 64.6669211 16.0839361 65.299095 16.8433147 66.2008953 17.159375 67.2755131 17.159375 69.1199367 17.159375 70.1428454 15.9493325 70.1428454 15.9493325L70.0505075 16.5371809C70.0157108 16.7607261 70.1848348 16.9630285 70.4066399 16.9630285L72.2716695 16.9630285C72.5673449 16.9630285 72.8190869 16.7434539 72.8653531 16.4450628L73.9848762 9.20426397C74.0194786 8.9807188 73.8503546 8.77881344 73.6287438 8.77881344L73.6287438 8.77881344zM61.4629963 8.79588999C61.2223541 10.4263705 60.0151851 10.4263705 58.8475953 10.4263705L58.1832565 10.4263705 58.6493029 7.38220809C58.6774043 7.19827634 58.8311699 7.06272619 59.0118495 7.06272619L59.3164123 7.06272619C60.110967 7.06272619 60.8617866 7.06272619 61.2488723 7.5298026 61.4804112 7.80927271 61.5504666 8.22347641 61.4629963 8.79588999L61.4629963 8.79588999zM60.954798 4.5421875L56.5514014 4.5421875C56.2504008 4.5421875 55.9941247 4.76817246 55.9472232 5.07499757L54.1667478 16.7218991C54.1315222 16.9515587 54.3036922 17.159375 54.5292943 17.159375L56.7884815 17.159375C56.9992414 17.159375 57.1787336 17.0011651 57.2113865 16.7864079L57.7164185 13.4846186C57.76332 13.1777935 58.0195961 12.9518086 58.3205967 12.9518086L59.7139865 12.9518086C62.6143586 12.9518086 64.2881677 11.5038308 64.725717 8.63420969 64.9226241 7.37914596 64.7336329 6.39293697 64.1638887 5.70252944 63.5377439 4.94353026 62.42794 4.5421875 60.954798 4.5421875L60.954798 4.5421875z"/>
      <path fill="#003087" d="M53.7957359 8.5796875L51.6840783 8.5796875C51.4821605 8.5796875 51.293257 8.68105674 51.1798754 8.850072L48.2670538 13.191589 47.0324765 9.01968589C46.9553771 8.75868004 46.717966 8.5796875 46.4486108 8.5796875L44.3728409 8.5796875C44.1222184 8.5796875 43.9457375 8.8291197 44.0265835 9.06917324L46.3517928 15.975851 44.1648104 19.0987421C43.993062 19.3437843 44.1663879 19.6828125 44.4631518 19.6828125L46.5728376 19.6828125C46.7727835 19.6828125 46.9599123 19.5836383 47.0738855 19.4172171L54.0964435 9.16076474C54.2644454 8.91532346 54.0909224 8.5796875 53.7957359 8.5796875M39.7925852 12.8957373C39.5925542 14.10439 38.6530501 14.9157835 37.4548082 14.9157835 36.8541322 14.9157835 36.3732025 14.7184444 36.0641167 14.3448103 35.7577525 13.9743526 35.6424771 13.446659 35.7394795 12.8590091 35.9260973 11.6612756 36.8805697 10.823676 38.0605386 10.823676 38.6487735 10.823676 39.126204 11.0230005 39.4415104 11.4000096 39.7587607 11.7797982 39.8833669 12.3110654 39.7925852 12.8957373L39.7925852 12.8957373zM42.6789407 8.77881344L40.6078717 8.77881344C40.4303904 8.77881344 40.2793466 8.91043906 40.2517427 9.08971196L40.1605722 9.68113387 40.015749 9.46672109C39.567283 8.80184296 38.5677114 8.5796875 37.5695004 8.5796875 35.2812939 8.5796875 33.3266667 10.3505782 32.9462385 12.8343914 32.7481515 14.0734193 33.0292445 15.2574543 33.7172033 16.0839361 34.3491768 16.8433147 35.2511629 17.159375 36.3257705 17.159375 38.1701765 17.159375 39.1930754 15.9493325 39.1930754 15.9493325L39.1005441 16.5371809C39.065942 16.7607261 39.2350644 16.9630285 39.4566731 16.9630285L41.3218793 16.9630285C41.6175519 16.9630285 41.8692915 16.7434539 41.9153628 16.4450628L43.0350697 9.20426397C43.0696717 8.9807188 42.9005493 8.77881344 42.6789407 8.77881344L42.6789407 8.77881344zM30.5130391 8.79588999C30.2724002 10.4263705 29.0652483 10.4263705 27.8978729 10.4263705L27.2335435 10.4263705 27.6993855 7.38220809C27.7276843 7.19827634 27.8814477 7.06272619 28.0619269 7.06272619L28.3664854 7.06272619C29.1612267 7.06272619 29.9120357 7.06272619 30.298918 7.5298026 30.5306516 7.80927271 30.600706 8.22347641 30.5130391 8.79588999L30.5130391 8.79588999zM30.0050458 4.5421875L25.6017115 4.5421875C25.3007151 4.5421875 25.0444427 4.76817246 24.9975419 5.07499757L23.2168937 16.7218991C23.1818665 16.9515587 23.3540341 17.159375 23.5794351 17.159375L25.6818585 17.159375C25.9828549 17.159375 26.2393252 16.93339 26.2862261 16.6267691L26.7667121 13.4846186C26.8134151 13.1777935 27.0698854 12.9518086 27.3708818 12.9518086L28.7642518 12.9518086C31.664385 12.9518086 33.3383684 11.5038308 33.7759115 8.63420969 33.9728158 7.37914596 33.7838273 6.39293697 33.2140911 5.70252944 32.5877573 4.94353026 31.4779691 4.5421875 30.0050458 4.5421875L30.0050458 4.5421875z"/>
      <mask id="paypal-checkout-overview-d" fill="#fff">
        <use xlink:href="#paypal-checkout-overview-c"/>
      </mask>
      <path fill="#009CDE" d="M14.6176629,5.24184998 C14.8512149,3.68805366 14.6161033,2.6306909 13.8107584,1.67302175 C12.9241187,0.618710829 11.3223967,0.167037682 9.27306588,0.167037682 L3.32411904,0.167037682 C2.90536309,0.167037682 2.54879669,0.485039992 2.48348792,0.916774414 L0.00643340147,17.3098647 C-0.04249944,17.6333603 0.197096027,17.9257271 0.510773086,17.9257271 L4.18327057,17.9257271 L3.92983354,19.6032249 C3.88713915,19.8862328 4.09651712,20.1421809 4.37100892,20.1421809 L7.46644978,20.1421809 C7.83295871,20.1421809 8.14488121,19.8638526 8.20200201,19.4862375 L8.23241446,19.3220482 L8.81551457,15.4628878 L8.85314022,15.2496655 C8.91026103,14.871847 9.22218353,14.5937221 9.58849751,14.5937221 L10.0515075,14.5937221 C13.0504473,14.5937221 15.3986388,13.3221198 16.0846734,9.64484934 C16.3714471,8.10834681 16.2232839,6.82575784 15.4651173,5.9240392 C15.2356593,5.65140766 14.9504452,5.42577454 14.6176629,5.24184998" mask="url(#paypal-checkout-overview-d)"/>
      <path fill="#012169" d="M14.6176629,5.24184998 C14.8512149,3.68805366 14.6161033,2.6306909 13.8107584,1.67302175 C12.9241187,0.618710829 11.3223967,0.167037682 9.27306588,0.167037682 L3.32411904,0.167037682 C2.90536309,0.167037682 2.54879669,0.485039992 2.48348792,0.916774414 L0.00643340147,17.3098647 C-0.04249944,17.6333603 0.197096027,17.9257271 0.510773086,17.9257271 L4.18327057,17.9257271 L5.10578135,11.8208152 L5.07712347,12.0122677 C5.14243224,11.5805333 5.49607437,11.2623275 5.91483032,11.2623275 L7.66042658,11.2623275 C11.0884548,11.2623275 13.7725479,9.80883517 14.556838,5.60542652 C14.5800372,5.48111467 14.5999223,5.36046504 14.6176629,5.24184998" mask="url(#paypal-checkout-overview-d)"/>
      <path fill="#003087" d="M6.09672012,5.26260253 C6.13610034,5.00278874 6.29576567,4.79017683 6.51079724,4.68254841 C6.60866292,4.63371888 6.71783579,4.60645573 6.83227236,4.60645573 L11.4953187,4.60645573 C12.0478114,4.60645573 12.5628735,4.64429861 13.0336815,4.72344314 C13.168393,4.7460268 13.2992055,4.77206922 13.4265089,4.80157039 C13.5536173,4.83086811 13.6772166,4.86382804 13.7967219,4.90045019 C13.856572,4.9185578 13.9152524,4.9376827 13.973153,4.95782488 C14.2043656,5.03778324 14.4195921,5.13239045 14.6176629,5.24184998 C14.8512149,3.68805366 14.6161033,2.6306909 13.8107584,1.67302175 C12.9241187,0.618710829 11.3223967,0.167037682 9.27306588,0.167037682 L3.32411904,0.167037682 C2.90536309,0.167037682 2.54879669,0.485039992 2.48348792,0.916774414 L0.00643340147,17.3098647 C-0.04249944,17.6333603 0.197096027,17.9257271 0.510773086,17.9257271 L4.18327057,17.9257271 L6.09672012,5.26260253" mask="url(#paypal-checkout-overview-d)"/>
    </g>
    <rect width="99.18" height="4.275" x="553" y="579" fill="#0070BA" rx="2.138"/>
    <rect width="58.995" height="4.275" x="553" y="597" fill="#0070BA" rx="2.138"/>
    <rect width="99.18" height="4.275" x="553" y="587" fill="#0070BA" rx="2.138"/>
    <rect width="99.18" height="12.825" x="553" y="553" fill="#0070BA" rx="6.412"/>
    <g transform="translate(198 541)">
      <path stroke="#003087" stroke-linecap="round" stroke-linejoin="round" stroke-width="2" d="M27.5689645 41L19.4338602 41 17.2447262 47.7778381C16.2363123 48.1717007 15.2702686 48.6590704 14.3607188 49.2286128L7.96844762 46.7605956 2.8472865 53.1020679 6.74818198 59.1176825C6.40356993 60.20293 6.15217261 61.3335142 6.01093816 62.5009345L0 66.116537 1.83322315 74.0674625 8.69439269 74.6653403C9.30170082 75.6344125 9.99657431 76.5383131 10.7677144 77.3685416L9.77342388 84.424067 17.0865437 88 21.978905 82.9137879C22.4788749 82.9591246 22.9873189 82.9789594 23.5014123 82.9789594 24.0126811 82.9789594 24.5239498 82.9591246 25.0267444 82.9137879L29.916281 88 37.2294008 84.424067 36.2322856 77.3685416C37.0034257 76.5383131 37.6982992 75.6344125 38.308432 74.6653403L45.1696015 74.0674625 47 66.116537 40.9890618 62.5009345C40.8478274 61.3335142 40.5992548 60.20293 40.2546427 59.1176825L44.1555382 53.1020679 39.0372018 46.7605956 32.6392812 49.2286128C31.7297314 48.6590704 30.7665124 48.1717007 29.7552738 47.7778381M23.5014123 71.6136131C27.1537352 71.6136131 30.1111846 68.5590523 30.1111846 64.7904383 30.1111846 61.0189908 27.1537352 57.96443 23.5014123 57.96443 19.8490895 57.96443 16.8888154 61.0189908 16.8888154 64.7904383 16.8888154 68.5590523 19.8490895 71.6136131 23.5014123 71.6136131M66 6.18216591L62.6618993 0 54.5497712 1.43437724 53.5200229 8.38823811C52.6218535 8.92469519 51.778032 9.5357399 51 10.212766M44.561354 8.63355678L40.6234133 16.0217307 45.3455571 21.3656183C45.2157969 22.3745631 45.1650212 23.4069717 45.2016925 24.4481792L40 29.2201359 43.1734838 36.995463 50.0479549 36.4264651C50.7531735 37.1978386 51.5232722 37.8988206 52.3441467 38.529411L52.6346968 45.6712147 60.4456982 48 64.3836389 42.0313879C64.8688293 41.9844602 65.3596615 41.9170017 65.8504937 41.8260793 66.3441467 41.73809 66.8265162 41.6266368 67.3004231 41.4975857L72.9647391 45.7064105 79.5373766 40.7408771 77.461213 33.9246341C78.0253879 33.0418074 78.51622 32.1061872 78.9280677 31.1324382L85.5712271 29.2230689 86 20.7878215 79.5430183 18.1510734C79.2327221 17.1597265 78.8462623 16.2065084 78.3921016 15.3060838L81.0719323 8.60715997 74.9393512 3.06382979 69.0409027 6.68605877C68.0874471 6.31063746 67.100141 6.01733957 66.090268 5.817897M63.6284804 30.5359241C67.1653595 29.8979273 69.5223534 26.458416 68.9004846 22.8459366 68.2786157 19.2362927 64.9055325 16.8260827 61.3742059 17.4640795 57.8373268 18.0992407 55.4775567 21.5415876 56.0994255 25.1512315 56.7240706 28.7637109 60.0943776 31.1739209 63.6284804 30.5359241"/>
      <text fill="#003087" font-family="PayPalSansBig-MediumItalic, PayPal Sans Big, sans-serif" font-size="20" font-style="italic" font-weight="500">
        <tspan x="56" y="73">Payment</tspan> <tspan x="56" y="98">API</tspan>
      </text>
    </g>
    <g transform="translate(631 340)">
      <path stroke="#003087" stroke-linecap="round" stroke-linejoin="round" stroke-width="2" d="M27.5689645 41L19.4338602 41 17.2447262 47.7778381C16.2363123 48.1717007 15.2702686 48.6590704 14.3607188 49.2286128L7.96844762 46.7605956 2.8472865 53.1020679 6.74818198 59.1176825C6.40356993 60.20293 6.15217261 61.3335142 6.01093816 62.5009345L0 66.116537 1.83322315 74.0674625 8.69439269 74.6653403C9.30170082 75.6344125 9.99657431 76.5383131 10.7677144 77.3685416L9.77342388 84.424067 17.0865437 88 21.978905 82.9137879C22.4788749 82.9591246 22.9873189 82.9789594 23.5014123 82.9789594 24.0126811 82.9789594 24.5239498 82.9591246 25.0267444 82.9137879L29.916281 88 37.2294008 84.424067 36.2322856 77.3685416C37.0034257 76.5383131 37.6982992 75.6344125 38.308432 74.6653403L45.1696015 74.0674625 47 66.116537 40.9890618 62.5009345C40.8478274 61.3335142 40.5992548 60.20293 40.2546427 59.1176825L44.1555382 53.1020679 39.0372018 46.7605956 32.6392812 49.2286128C31.7297314 48.6590704 30.7665124 48.1717007 29.7552738 47.7778381M23.5014123 71.6136131C27.1537352 71.6136131 30.1111846 68.5590523 30.1111846 64.7904383 30.1111846 61.0189908 27.1537352 57.96443 23.5014123 57.96443 19.8490895 57.96443 16.8888154 61.0189908 16.8888154 64.7904383 16.8888154 68.5590523 19.8490895 71.6136131 23.5014123 71.6136131M66 6.18216591L62.6618993 0 54.5497712 1.43437724 53.5200229 8.38823811C52.6218535 8.92469519 51.778032 9.5357399 51 10.212766M44.561354 8.63355678L40.6234133 16.0217307 45.3455571 21.3656183C45.2157969 22.3745631 45.1650212 23.4069717 45.2016925 24.4481792L40 29.2201359 43.1734838 36.995463 50.0479549 36.4264651C50.7531735 37.1978386 51.5232722 37.8988206 52.3441467 38.529411L52.6346968 45.6712147 60.4456982 48 64.3836389 42.0313879C64.8688293 41.9844602 65.3596615 41.9170017 65.8504937 41.8260793 66.3441467 41.73809 66.8265162 41.6266368 67.3004231 41.4975857L72.9647391 45.7064105 79.5373766 40.7408771 77.461213 33.9246341C78.0253879 33.0418074 78.51622 32.1061872 78.9280677 31.1324382L85.5712271 29.2230689 86 20.7878215 79.5430183 18.1510734C79.2327221 17.1597265 78.8462623 16.2065084 78.3921016 15.3060838L81.0719323 8.60715997 74.9393512 3.06382979 69.0409027 6.68605877C68.0874471 6.31063746 67.100141 6.01733957 66.090268 5.817897M63.6284804 30.5359241C67.1653595 29.8979273 69.5223534 26.458416 68.9004846 22.8459366 68.2786157 19.2362927 64.9055325 16.8260827 61.3742059 17.4640795 57.8373268 18.0992407 55.4775567 21.5415876 56.0994255 25.1512315 56.7240706 28.7637109 60.0943776 31.1739209 63.6284804 30.5359241"/>
      <text fill="#003087" font-family="PayPalSansBig-MediumItalic, PayPal Sans Big, sans-serif" font-size="20" font-style="italic" font-weight="500">
        <tspan x="56" y="73">Payment</tspan> <tspan x="56" y="98">API</tspan>
      </text>
    </g>
    <g transform="translate(89 114)">
      <path fill="#FFF" fill-rule="nonzero" stroke="#6C7378" stroke-width="2" d="M1,326.465 L485.495,326.465 L485.495,4.02163237 C485.495,2.7444266 484.652697,1.75452765 483.715029,1.75452765 L2.77997143,1.75452765 C1.8423026,1.75452765 1,2.7444266 1,4.02163237 L1,326.465 Z"/>
      <path fill="#000" fill-rule="nonzero" d="M0,21.1267742 L0,2.81690323 C0,1.26760645 1.25098714,0 2.77997143,0 L483.715029,0 C485.244013,0 486.495,1.26760645 486.495,2.81690323 L486.495,21.1267742 L0,21.1267742 Z"/>
      <g fill="#FFF" fill-rule="nonzero" transform="translate(6.736 6.79)">
        <ellipse cx="2.842" cy="3.32" rx="2.707" ry="3.018"/>
        <ellipse cx="11.64" cy="3.32" rx="2.707" ry="3.018"/>
        <ellipse cx="20.437" cy="3.32" rx="2.707" ry="3.018"/>
      </g>
      <rect width="17.963" height="6.791" x="306.12" y="166" fill="#FFF" fill-rule="nonzero"/>
      <path stroke="#6C7378" d="M1.67304945,48 L484.821951,48"/>
      <rect width="86.093" height="86.319" x="68.33" y="100.02" fill="#6C7378"/>
      <rect width="245.981" height="4.11" x="174.92" y="142.87" fill="#6C7378" rx="2.055"/>
      <rect width="159.887" height="4.11" x="174.92" y="165.79" fill="#6C7378" rx="2.055"/>
      <rect width="245.981" height="4.11" x="174.92" y="153.46" fill="#6C7378" rx="2.055"/>
      <rect width="245.981" height="15.072" x="174.92" y="116.46" fill="#6C7378" rx="4"/>
      <rect width="258.871" height="45.608" x="116.09" y="229.64" fill="#FFC300" rx="22.804"/>
      <g transform="translate(202.25 238.757)">
        <g transform="translate(.113 .659)">
          <path fill="#009CDE" d="M83.8095642 5.39460385L81.9187199 18.5533896C81.8820709 18.8084294 82.0622104 19.0387806 82.2980483 19.0387806L84.1998666 19.0387806C84.5148003 19.0387806 84.782939 18.7880443 84.8320115 18.4478403L86.6963525 5.52529477C86.7332087 5.27025496 86.5530691 5.03967723 86.3170242 5.03967723L84.1888926 5.03967723C83.9998496 5.03967723 83.8389663 5.19030021 83.8095642 5.39460385M77.8106141 14.3081617C77.5905948 15.649194 76.5574238 16.5494565 75.2394465 16.5494565 74.5785335 16.5494565 74.0497603 16.3305035 73.7095751 15.9159466 73.3725971 15.504914 73.2458027 14.919424 73.352712 14.2674109 73.5577639 12.9384938 74.6076128 12.009155 75.905705 12.009155 76.552506 12.009155 77.0778581 12.2303107 77.4244579 12.6486123 77.7734097 13.0699978 77.9104673 13.6594528 77.8106141 14.3081617L77.8106141 14.3081617zM80.9853913 9.74032582L78.7073689 9.74032582C78.5121526 9.74032582 78.3460156 9.88636793 78.3156534 10.085276L78.2153725 10.7414742 78.0562915 10.5035776C77.5627984 9.76587768 76.4633437 9.51939032 75.3653856 9.51939032 72.8487418 9.51939032 70.6985829 11.4842404 70.28014 14.2400969 70.0624728 15.6148311 70.3716544 16.9285493 71.1281442 17.8455527 71.823482 18.6881034 72.8153861 19.0387806 73.9973748 19.0387806 76.0260848 19.0387806 77.1511978 17.6962065 77.1511978 17.6962065L77.049634 18.3484398C77.0113605 18.5964691 77.1973826 18.820929 77.4413495 18.820929L79.4927243 18.820929C79.8179422 18.820929 80.0948372 18.5773052 80.145726 18.2462324L81.3771068 10.2123744C81.4151665 9.96434516 81.2291444 9.74032582 80.9853913 9.74032582L80.9853913 9.74032582zM67.6040979 9.7592727C67.3394118 11.5683339 66.011628 11.5683339 64.727378 11.5683339L63.9966615 11.5683339 64.5092732 8.19075523C64.5401822 7.98667808 64.7093114 7.8362816 64.9080437 7.8362816L65.243037 7.8362816C66.11698 7.8362816 66.942818 7.8362816 67.3685796 8.35451524 67.6232529 8.66459473 67.7003079 9.12416469 67.6040979 9.7592727L67.6040979 9.7592727zM67.0451227 5.03967723L62.2017589 5.03967723C61.8706836 5.03967723 61.5888017 5.29041352 61.537214 5.6308441L59.5788416 18.5533896C59.5400964 18.8082029 59.7294689 19.0387806 59.9776121 19.0387806L62.462527 19.0387806C62.694345 19.0387806 62.8917712 18.8632426 62.9276867 18.6249638L63.4831792 14.9615412C63.5347669 14.6211106 63.8166489 14.3703743 64.1477242 14.3703743L65.680335 14.3703743C68.870499 14.3703743 70.7115475 12.7638047 71.1928148 9.57988413 71.4093959 8.18735771 71.2015216 7.09313274 70.5748511 6.32710731 69.8861448 5.48497764 68.6654544 5.03967723 67.0451227 5.03967723L67.0451227 5.03967723z"/>
          <path fill="#003087" d="M59.1707599 9.51939032L56.8481151 9.51939032C56.6260227 9.51939032 56.4182447 9.63186218 56.2935346 9.81938908L53.0896772 14.6364171 51.7317466 10.0075802C51.6469437 9.71798728 51.3858115 9.51939032 51.0895436 9.51939032L48.8063723 9.51939032C48.5307087 9.51939032 48.3365947 9.79614194 48.4255184 10.0624877L50.983052 17.7256294 48.5775563 21.1905597C48.3886476 21.4624405 48.5792914 21.8386013 48.9057066 21.8386013L51.2261826 21.8386013C51.4461062 21.8386013 51.6519321 21.7285649 51.7772929 21.5439162L59.5015129 10.1641109C59.6863007 9.8917873 59.49544 9.51939032 59.1707599 9.51939032M43.7684783 14.3081617C43.5484612 15.649194 42.5150862 16.5494565 41.1971215 16.5494565 40.5364286 16.5494565 40.0074466 16.3305035 39.6674784 15.9159466 39.3305037 15.504914 39.2037105 14.919424 39.3104049 14.2674109 39.5156687 12.9384938 40.5655076 12.009155 41.8633736 12.009155 42.5103822 12.009155 43.0355155 12.2303107 43.3823258 12.6486123 43.7312743 13.0699978 43.8683306 13.6594528 43.7684783 14.3081617L43.7684783 14.3081617zM46.9432253 9.74032582L44.6652246 9.74032582C44.4700102 9.74032582 44.3038748 9.88636793 44.2735128 10.085276L44.1732329 10.7414742 44.0139396 10.5035776C43.520665 9.76587768 42.4212208 9.51939032 41.3232732 9.51939032 38.8064395 9.51939032 36.6565149 11.4842404 36.238076 14.2400969 36.020197 15.6148311 36.3293757 16.9285493 37.0860722 17.8455527 37.7811895 18.6881034 38.7732979 19.0387806 39.9552754 19.0387806 41.9839661 19.0387806 43.1090683 17.6962065 43.1090683 17.6962065L43.0072917 18.3484398C42.9692324 18.5964691 43.1552527 18.820929 43.3990035 18.820929L45.4505725 18.820929C45.7757874 18.820929 46.0526797 18.5773052 46.1033542 18.2462324L47.3349371 10.2123744C47.3729964 9.96434516 47.1869761 9.74032582 46.9432253 9.74032582L46.9432253 9.74032582zM33.5617624 9.7592727C33.2970801 11.5683339 31.969315 11.5683339 30.6853008 11.5683339L29.9545947 11.5683339 30.4669814 8.19075523C30.4981077 7.98667808 30.6672345 7.8362816 30.8657463 7.8362816L31.2007349 7.8362816C32.0748832 7.8362816 32.9007096 7.8362816 33.3262474 8.35451524 33.5811347 8.66459473 33.6581887 9.12416469 33.5617624 9.7592727L33.5617624 9.7592727zM33.0030128 5.03967723L28.1597175 5.03967723C27.8286469 5.03967723 27.5467689 5.29041352 27.495182 5.6308441L25.5366196 18.5533896C25.4980926 18.8082029 25.6874624 19.0387806 25.9353845 19.0387806L28.2478724 19.0387806C28.578943 19.0387806 28.8610387 18.7880443 28.9126256 18.4478403L29.4411196 14.9615412C29.4924889 14.6211106 29.7745846 14.3703743 30.1056552 14.3703743L31.6382444 14.3703743C34.8281456 14.3703743 36.6693858 12.7638047 37.1506462 9.57988413 37.3672243 8.18735771 37.1593528 7.09313274 36.5326913 6.32710731 35.8437771 5.48497764 34.6231038 5.03967723 33.0030128 5.03967723L33.0030128 5.03967723z"/>
          <mask id="paypal-checkout-overview-f" fill="#fff">
            <use xlink:href="#paypal-checkout-overview-e"/>
          </mask>
          <path fill="#009CDE" d="M16.0781929,5.81597126 C16.3350804,4.09199313 16.0764775,2.91882116 15.1906662,1.8562619 C14.2154375,0.686476037 12.4536788,0.185332728 10.1995882,0.185332728 L3.65624982,0.185332728 C3.19565369,0.185332728 2.8034608,0.538164706 2.73162668,1.01718547 L0.00707619753,19.205753 C-0.0467457897,19.5646799 0.216788961,19.8890686 0.561807198,19.8890686 L4.60124384,19.8890686 L4.32248454,21.7502968 C4.27552432,22.0643015 4.50582238,22.3482827 4.80774015,22.3482827 L8.21246331,22.3482827 C8.61559214,22.3482827 8.9586805,22.0394701 9.02150856,21.6204962 L9.05495967,21.4383238 L9.69632049,17.1564832 L9.73770552,16.9199074 C9.80053358,16.5007078 10.1436219,16.1921209 10.5465363,16.1921209 L11.0558081,16.1921209 C14.3543883,16.1921209 16.9372004,14.7812445 17.6917804,10.7012156 C18.0072073,8.99642535 17.8442403,7.57335895 17.0103211,6.57287825 C16.7579368,6.27038635 16.4442253,6.02004043 16.0781929,5.81597126" mask="url(#paypal-checkout-overview-f)"/>
          <path fill="#012169" d="M16.0781929,5.81597126 C16.3350804,4.09199313 16.0764775,2.91882116 15.1906662,1.8562619 C14.2154375,0.686476037 12.4536788,0.185332728 10.1995882,0.185332728 L3.65624982,0.185332728 C3.19565369,0.185332728 2.8034608,0.538164706 2.73162668,1.01718547 L0.00707619753,19.205753 C-0.0467457897,19.5646799 0.216788961,19.8890686 0.561807198,19.8890686 L4.60124384,19.8890686 L5.61592768,13.1155073 L5.58440643,13.3279289 C5.65624056,12.8489081 6.04521699,12.4958504 6.50581312,12.4958504 L8.42582138,12.4958504 C12.1963625,12.4958504 15.1486379,10.8831622 16.0112907,6.21936905 C16.0368079,6.08144177 16.0586798,5.94757782 16.0781929,5.81597126" mask="url(#paypal-checkout-overview-f)"/>
          <path fill="#003087" d="M6.70587652,5.83899677 C6.74919143,5.55072649 6.92480979,5.31482796 7.16132633,5.19541137 C7.2689703,5.14123372 7.38905123,5.11098453 7.51492178,5.11098453 L12.6438784,5.11098453 C13.2515737,5.11098453 13.8180983,5.15297221 14.3359473,5.24078516 C14.4841186,5.26584233 14.6280013,5.29473707 14.7680242,5.32746941 C14.9078328,5.359976 15.0437815,5.39654592 15.1752272,5.43717916 C15.2410573,5.45727004 15.3056008,5.47848962 15.3692866,5.5008379 C15.6236009,5.58955381 15.8603318,5.69452302 16.0781929,5.81597126 C16.3350804,4.09199313 16.0764775,2.91882116 15.1906662,1.8562619 C14.2154375,0.686476037 12.4536788,0.185332728 10.1995882,0.185332728 L3.65624982,0.185332728 C3.19565369,0.185332728 2.8034608,0.538164706 2.73162668,1.01718547 L0.00707619753,19.205753 C-0.0467457897,19.5646799 0.216788961,19.8890686 0.561807198,19.8890686 L4.60124384,19.8890686 L6.70587652,5.83899677" mask="url(#paypal-checkout-overview-f)"/>
        </g>
      </g>
    </g>
    <text fill="#000" font-family="CourierNewPS-BoldMT, Courier New" font-size="12.772" font-weight="bold">
      <tspan x="587" y="325">Payment ID</tspan> <tspan x="587" y="340">Payer ID</tspan>
    </text>
    <text fill="#000" font-family="CourierNewPS-BoldMT, Courier New" font-size="12.772" font-weight="bold">
      <tspan x="263" y="487">Payment ID</tspan>
    </text>
    <text fill="#000" font-family="CourierNewPS-BoldMT, Courier New" font-size="12.772" font-weight="bold">
      <tspan x="125.13" y="481">amount: 5.00</tspan> <tspan x="117.47" y="496">currency: USD</tspan>
    </text>
    <rect width="218.59" height="77.515" x="531" y="66" fill="#FFF" stroke="#00CF92" stroke-width="2" rx="4.561"/>
    <text fill="#00CF92" font-family="PayPalSansSmall-Regular, PayPal Sans Small, sans-serif" font-size="19.705">
      <tspan x="599" y="101">Thanks for </tspan> <tspan x="599" y="121.98">your payment!</tspan>
    </text>
    <circle cx="566.39" cy="103.39" r="15.39" fill="#00CF92"/>
    <polyline stroke="#FFF" stroke-width="1.423" points="558 103.73 562.94 108.97 574.25 97"/>
    <text fill="#FFF" font-family="PayPalSansSmall-Regular, PayPal Sans Small, sans-serif" font-size="19.705">
      <tspan x="21" y="35">&lt;script&gt; … &lt;/script&gt;</tspan>
    </text>
    <polyline stroke="#000" stroke-linecap="round" stroke-linejoin="round" points="38 326 38 367.04 204.72 367.04"/>
    <path stroke="#000" stroke-linecap="round" stroke-linejoin="round" d="M228.392374 388.758284L228.392374 559.435001M255.444192 540.862203L255.444192 403.566309"/>
    <path stroke="#000" stroke-linecap="round" stroke-linejoin="round" d="M422.565315,390 L422.565315,481.813767"/>
    <path stroke="#000" stroke-linecap="round" stroke-linejoin="round" d="M447.085192,493.627247 L447.085192,403.489374"/>
    <path stroke="#000" stroke-linecap="round" stroke-linejoin="round" d="M539.219118,301.34 L539.219118,460.803942" transform="rotate(-90 538.943 381.283)"/>
    <path stroke="#000" stroke-linecap="round" stroke-linejoin="round" d="M577.703824,450.397874 L577.703824,262.048648" transform="rotate(-90 577.478 356.283)"/>
    <path stroke="#000" stroke-dasharray="1 3.28 1 3.28" stroke-linecap="round" stroke-linejoin="round" d="M575,213.500348 L639.98,214.11 L639.98,144"/>
    <polyline stroke="#000" stroke-linecap="round" stroke-linejoin="round" points="220 559.7 228.34 552 236.25 559.7" transform="rotate(-180 228.123 555.847)"/>
    <polyline stroke="#000" stroke-linecap="round" stroke-linejoin="round" points="415 482.69 423.34 475 431.25 482.69" transform="rotate(-180 423.123 478.848)"/>
    <polyline stroke="#000" stroke-linecap="round" stroke-linejoin="round" points="607.73 383.97 616.07 376.27 623.97 383.97" transform="rotate(90 615.847 380.123)"/>
    <polyline stroke="#000" stroke-linecap="round" stroke-linejoin="round" points="247 409.69 255.34 402 263.25 409.69"/>
    <polyline stroke="#000" stroke-linecap="round" stroke-linejoin="round" points="439 409.69 447.34 402 455.25 409.69"/>
    <polyline stroke="#000" stroke-linecap="round" stroke-linejoin="round" points="477.73 359.97 486.07 352.27 493.97 359.97" transform="rotate(-90 485.848 356.123)"/>
    <rect width="32" height="32" x="22" y="308" fill="#003087" rx="16"/>
    <rect width="32" height="32" x="187" y="348" fill="#003087" rx="16"/>
    <rect width="32" height="32" x="225" y="470" fill="#003087" rx="16"/>
    <rect width="32" height="32" x="419" y="424" fill="#003087" rx="16"/>
    <rect width="32" height="32" x="550" y="352" fill="#003087" rx="16"/>
    <rect width="32" height="32" x="624" y="156" fill="#003087" rx="16"/>
    <text fill="#FFF" font-family="PayPalSansSmall-Regular, PayPal Sans Small, sans-serif" font-size="16.245">
      <tspan x="33.33" y="328">1</tspan>
    </text>
    <text fill="#FFF" font-family="PayPalSansSmall-Regular, PayPal Sans Small, sans-serif" font-size="16.245">
      <tspan x="198.33" y="369">2</tspan>
    </text>
    <text fill="#FFF" font-family="PayPalSansSmall-Regular, PayPal Sans Small, sans-serif" font-size="16.245">
      <tspan x="237.33" y="491">3</tspan>
    </text>
    <text fill="#FFF" font-family="PayPalSansSmall-Regular, PayPal Sans Small, sans-serif" font-size="16.245">
      <tspan x="430.33" y="444">4</tspan>
    </text>
    <text fill="#FFF" font-family="PayPalSansSmall-Regular, PayPal Sans Small, sans-serif" font-size="16.245">
      <tspan x="562.33" y="373">5</tspan>
    </text>
    <text fill="#FFF" font-family="PayPalSansSmall-Regular, PayPal Sans Small, sans-serif" font-size="16.245">
      <tspan x="635.33" y="177">6</tspan>
    </text>
  </g>
</svg>
